<svg width="40" height="40" viewBox="0 0 152 152" fill="none" xmlns="http://www.w3.org/2000/svg">
<path d="M76 151.69C75.2257 151.688 74.4623 151.507 73.77 151.16L3.08 115.89C2.24714 115.475 1.54662 114.836 1.05726 114.044C0.567892 113.253 0.3091 112.341 0.31 111.41V40.86C0.31096 39.9312 0.570626 39.021 1.05989 38.2315C1.54915 37.4419 2.24866 36.8043 3.08 36.39L73.77 1.11004C74.4627 0.764866 75.2261 0.585205 76 0.585205C76.7739 0.585205 77.5373 0.764866 78.23 1.11004L148.92 36.39C149.751 36.8043 150.451 37.4419 150.94 38.2315C151.429 39.021 151.689 39.9312 151.69 40.86V111.41C151.691 112.341 151.432 113.253 150.943 114.044C150.453 114.836 149.753 115.475 148.92 115.89L78.23 151.16C77.5377 151.507 76.7743 151.688 76 151.69ZM10.31 108.32L76 141.1L141.69 108.32V44L76 11.17L10.31 44V108.32Z" fill="#FE7C45"/>
<path d="M76 81C75.2264 81.0015 74.4631 80.8235 73.77 80.48L3.09 45.34C1.89653 44.7499 0.986354 43.7098 0.559709 42.4486C0.133063 41.1875 0.224895 39.8084 0.815001 38.615C1.40511 37.4215 2.44515 36.5113 3.70633 36.0847C4.96751 35.658 6.34653 35.7499 7.54 36.34L76 70.34L144.46 36.34C145.051 36.0478 145.694 35.8748 146.351 35.831C147.009 35.7872 147.669 35.8734 148.294 36.0847C148.918 36.2959 149.495 36.6281 149.991 37.0623C150.487 37.4964 150.893 38.024 151.185 38.615C151.477 39.2059 151.65 39.8486 151.694 40.5064C151.738 41.1642 151.652 41.8242 151.44 42.4486C151.229 43.0731 150.897 43.6499 150.463 44.146C150.029 44.6421 149.501 45.0478 148.91 45.34L78.23 80.48C77.5369 80.8235 76.7736 81.0015 76 81V81Z" fill="#FE7C45"/>
<path d="M111.34 63.43C110.57 63.43 109.81 63.252 109.12 62.91L38.43 27.77C37.2365 27.1799 36.3264 26.1399 35.8997 24.8787C35.4731 23.6175 35.5649 22.2385 36.155 21.045C36.7451 19.8516 37.7852 18.9414 39.0463 18.5147C40.3075 18.0881 41.6865 18.1799 42.88 18.77L113.57 54C114.581 54.5012 115.393 55.3299 115.874 56.3511C116.354 57.3724 116.475 58.5262 116.217 59.625C115.958 60.7237 115.336 61.7026 114.45 62.4025C113.565 63.1025 112.469 63.4822 111.34 63.48V63.43Z" fill="#FE7C45"/>
<path d="M76 151.69C74.6739 151.69 73.4021 151.163 72.4645 150.226C71.5268 149.288 71 148.016 71 146.69V76C71 74.6739 71.5268 73.4021 72.4645 72.4645C73.4021 71.5268 74.6739 71 76 71C77.3261 71 78.5979 71.5268 79.5355 72.4645C80.4732 73.4021 81 74.6739 81 76V146.69C81 148.016 80.4732 149.288 79.5355 150.226C78.5979 151.163 77.3261 151.69 76 151.69V151.69Z" fill="#FE7C45"/>
</svg>
