<svg width="121" height="35" viewBox="0 0 121 35" fill="none" xmlns="http://www.w3.org/2000/svg">
<path d="M2.93876 31.8761L12.0472 19.859L20.6733 32.2269L2.93876 31.8761Z" fill="#1C5E66" stroke="#1C5E66" stroke-width="2.21725"/>
<path d="M21.9472 1.34872L4.2179 1.90435L4.3568 6.33667L22.9195 32.375L33.5142 16.5146L21.9472 1.34872Z" fill="#FE7C45" stroke="#FE7C45" stroke-width="2.21725"/>
<rect x="21.9502" y="32.3568" width="2.21725" height="2.21725" fill="url(#paint0_linear_4:14)"/>
<path d="M37.7237 14.8109H40.8409V23.2178H42.9688V14.8109H46.0859V13.036H37.7237V14.8109ZM47.4631 23.2178H49.6158V19.6085H51.1868L53.1158 23.2178H55.4922L53.3295 19.2605C54.4879 18.7633 55.1293 17.7541 55.1293 16.362C55.1293 14.3386 53.7919 13.036 51.4801 13.036H47.4631V23.2178ZM49.6158 17.8784V14.796H51.0675C52.3104 14.796 52.9119 15.3478 52.9119 16.362C52.9119 17.3712 52.3104 17.8784 51.0774 17.8784H49.6158ZM58.4055 23.2178L59.1612 20.8961H62.8352L63.5909 23.2178H65.8977L62.3878 13.036H59.6136L56.0987 23.2178H58.4055ZM59.7081 19.2157L60.9609 15.3627H61.0405L62.2933 19.2157H59.7081ZM75.6396 13.036H73.4968V19.4394H73.4073L69.0124 13.036H67.1232V23.2178H69.2759V16.8095H69.3505L73.7802 23.2178H75.6396V13.036ZM82.9416 15.9643H85.0048C84.975 14.1497 83.4835 12.8968 81.2164 12.8968C78.9842 12.8968 77.3485 14.1298 77.3585 15.9792C77.3535 17.4806 78.4125 18.3407 80.1326 18.7534L81.2413 19.0318C82.35 19.3002 82.9664 19.6184 82.9714 20.3045C82.9664 21.0502 82.2605 21.5573 81.1667 21.5573C80.0481 21.5573 79.2427 21.0403 79.1731 20.0211H77.09C77.1447 22.2235 78.7207 23.362 81.1916 23.362C83.6774 23.362 85.139 22.1738 85.144 20.3095C85.139 18.6141 83.8613 17.7143 82.0914 17.3166L81.1767 17.0978C80.2917 16.894 79.551 16.5659 79.5659 15.835C79.5659 15.1788 80.1475 14.6965 81.2015 14.6965C82.2306 14.6965 82.862 15.1639 82.9416 15.9643Z" fill="#1C5E66"/>
<path d="M87.1115 13.036V23.2178H89.1996V16.5659H89.2841L91.919 23.1681H93.3409L95.9759 16.5907H96.0604V23.2178H98.1484V13.036H95.4936L92.6896 19.8769H92.5703L89.7663 13.036H87.1115ZM101.677 23.2178L102.433 20.8961H106.107L106.862 23.2178H109.169L105.659 13.036H102.885L99.3702 23.2178H101.677ZM102.98 19.2157L104.232 15.3627H104.312L105.565 19.2157H102.98ZM112.413 13.036H109.972L113.099 18.1269L109.912 23.2178H112.378L114.466 19.7427H114.546L116.634 23.2178H119.11L115.933 18.1269L119.04 13.036H116.609L114.546 16.5062H114.466L112.413 13.036Z" fill="#FE7C45"/>
<defs>
<linearGradient id="paint0_linear_4:14" x1="23.0588" y1="32.3568" x2="23.0588" y2="34.574" gradientUnits="userSpaceOnUse">
<stop offset="0.570312" stop-color="#C4C4C4" stop-opacity="0"/>
<stop offset="0.625" stop-color="white"/>
</linearGradient>
</defs>
</svg>
