<svg xmlns="http://www.w3.org/2000/svg" width="500" height="500" style="width:100%;height:100%"><defs><clipPath id="a"><path d="M0 0h500v500H0z"/></clipPath></defs><g clip-path="url(#a)"><g display="block"><path stroke-linecap="round" stroke-linejoin="round" stroke="#FD7B45" stroke-width="12.6" d="M414.624 354.398l22.18-.199v-106.74l-53.71-93.4h-66.38v200.14l23.19.199" fill="none"/><path stroke-linecap="round" stroke-linejoin="round" stroke="#FD7B45" stroke-width="12.6" d="M397.782 179.602h-48.379v66.577h87.403M316.714 299.83h120.092M160.594 354.398l156.12-.199v-240.17H63.194v240.17l20.69.199M66.659 154.054h245.998M66.659 299.83h245.998" fill="none"/></g><g display="block"><path fill="#FD7B45" d="M384.933 354.113a8.172 8.172 0 11-16.345 0 8.172 8.172 0 0116.345 0z"/><path stroke-linecap="round" stroke-linejoin="round" stroke="#FD7B45" stroke-width="12.6" d="M408.619 354.113c0 17.595-14.263 31.858-31.858 31.858s-31.858-14.263-31.858-31.858 14.263-31.858 31.858-31.858 31.858 14.263 31.858 31.858z" fill="none"/></g><g display="block"><path stroke-linecap="round" stroke-linejoin="round" stroke="#FD7B45" stroke-width="12.6" d="M153.597 354.113c0 17.595-14.263 31.858-31.858 31.858s-31.858-14.263-31.858-31.858 14.263-31.858 31.858-31.858 31.858 14.263 31.858 31.858z" fill="none"/><path fill="#FD7B45" d="M129.911 354.113a8.172 8.172 0 11-16.345 0 8.172 8.172 0 0116.345 0z"/></g></g></svg>